<svg id="svg" xmlns="http://www.w3.org/2000/svg" xmlns:xlink="http://www.w3.org/1999/xlink" width="400" height="531.0843373493975" viewBox="0, 0, 400,531.0843373493975" version="1.1"><g id="svgg"><path id="path0" d="M172.398 1.738 C 173.121 2.244,173.336 2.819,172.876 3.016 C 172.416 3.213,168.093 11.614,163.269 21.687 L 154.497 40.000 139.990 40.000 C 130.604 40.000,125.672 40.340,126.019 40.964 C 126.313 41.494,131.706 49.809,138.003 59.441 C 154.066 84.015,164.933 105.867,169.161 122.099 C 171.427 130.801,170.178 133.681,159.903 143.434 C 139.592 162.712,138.583 178.183,155.946 204.157 C 167.272 221.102,167.259 221.549,154.671 246.747 C 146.281 263.543,142.853 267.113,137.159 264.987 C 131.440 262.851,127.921 241.032,126.600 199.518 C 125.891 177.260,126.663 173.002,133.629 160.726 C 139.169 150.964,149.398 130.625,149.398 129.372 C 149.398 128.868,147.477 127.721,145.129 126.824 C 128.433 120.448,115.207 97.770,107.192 61.776 C 103.478 45.098,102.399 44.684,94.226 56.805 C 90.870 61.782,88.951 61.828,78.676 57.180 C 62.619 49.915,60.210 51.268,50.049 73.253 C 38.867 97.449,36.280 98.844,16.262 91.478 C 2.033 86.242,1.026 86.912,6.535 97.942 C 11.689 108.261,14.190 115.920,15.864 126.504 C 17.718 138.226,18.771 151.029,17.808 150.128 C 17.387 149.734,16.886 146.698,16.696 143.381 C 15.665 125.475,12.547 113.009,5.127 97.135 C -0.369 85.375,1.230 84.668,18.795 91.085 C 36.027 97.381,37.711 96.374,49.082 72.964 C 60.315 49.837,62.512 48.540,78.104 55.833 C 89.583 61.203,92.000 60.510,97.546 50.263 C 101.491 42.972,105.143 46.299,107.850 59.652 C 114.955 94.706,128.292 118.408,145.089 125.837 C 147.989 127.119,150.359 128.716,150.357 129.385 C 150.352 130.845,140.714 150.338,134.075 162.316 C 126.581 175.837,125.830 185.948,129.237 227.470 C 131.550 255.673,133.858 264.096,139.272 264.096 C 144.402 264.096,146.719 261.138,154.809 244.266 C 166.209 220.489,166.231 221.081,153.260 201.889 C 137.143 178.041,139.105 161.787,160.594 141.158 L 168.675 133.400 168.675 128.361 C 168.675 121.072,164.615 109.858,155.179 91.084 C 147.938 76.678,125.670 40.755,124.628 41.798 C 124.414 42.011,128.516 48.634,133.741 56.514 C 154.630 88.018,167.711 115.708,167.711 128.420 C 167.711 133.073,167.644 133.172,158.240 142.457 C 137.929 162.510,136.374 178.206,152.340 202.004 C 165.055 220.956,165.059 221.045,154.115 243.448 C 137.275 277.920,132.381 270.751,129.062 206.747 C 127.644 179.397,128.256 174.517,134.512 163.324 C 139.788 153.886,148.627 136.522,150.322 132.265 C 151.890 128.328,150.357 126.244,144.458 124.298 C 129.884 119.488,114.195 90.508,108.575 58.019 C 106.476 45.884,101.510 42.577,96.712 50.120 C 90.345 60.132,90.325 60.138,79.518 55.368 C 61.068 47.224,59.527 48.283,44.970 79.125 C 37.486 94.983,35.114 95.968,18.723 90.026 C 0.229 83.323,-2.320 84.958,4.725 99.006 C 11.351 112.219,15.422 129.270,15.422 143.811 C 15.422 148.804,17.866 153.253,20.608 153.253 C 21.840 153.253,27.952 148.261,27.952 147.256 C 27.952 146.734,26.419 147.652,24.545 149.298 C 20.845 152.547,19.763 152.891,18.694 151.162 C 18.221 150.396,18.529 150.238,19.654 150.670 C 20.865 151.134,23.589 149.146,29.775 143.283 C 47.959 126.051,60.773 119.554,76.627 119.531 C 97.102 119.501,95.900 134.296,74.217 149.187 C 66.112 154.753,66.588 159.630,75.465 161.990 C 89.353 165.683,89.741 167.962,91.108 253.976 C 92.541 344.153,95.193 350.361,132.286 350.361 L 146.500 350.361 146.499 355.663 C 146.498 364.779,144.608 387.324,142.540 402.892 C 138.459 433.618,139.838 441.102,153.035 459.870 C 166.997 479.726,167.972 483.646,165.468 509.880 C 163.405 531.490,182.459 534.980,215.488 519.044 C 239.623 507.398,242.677 497.249,228.015 477.420 C 216.025 461.205,208.193 445.922,208.193 438.741 C 208.193 434.236,209.560 432.876,220.589 426.411 C 238.993 415.622,240.129 408.810,226.592 390.409 C 212.294 370.974,204.626 355.066,203.684 342.881 L 203.144 335.904 210.488 343.108 C 214.527 347.071,217.814 350.758,217.794 351.301 C 217.773 351.845,215.398 349.687,212.516 346.506 C 209.634 343.325,207.265 341.066,207.252 341.485 C 207.229 342.248,274.621 414.308,290.090 430.060 C 306.254 446.520,316.356 438.909,310.797 414.458 C 307.423 399.618,307.848 376.865,311.955 352.432 C 315.011 334.251,307.793 321.928,294.087 321.928 C 283.114 321.928,282.834 320.943,287.811 299.791 C 290.144 289.872,290.154 289.660,288.377 287.260 C 282.969 279.955,275.875 278.655,268.473 283.614 C 258.878 290.043,258.444 290.246,254.918 289.941 L 251.429 289.639 257.211 278.252 C 264.795 263.318,270.197 256.060,273.077 256.937 C 285.293 260.658,307.336 271.167,315.422 277.126 L 320.000 280.501 320.000 358.916 C 320.000 436.976,320.009 437.342,322.013 439.889 C 324.650 443.242,328.300 445.061,333.031 445.380 C 340.964 445.915,343.033 445.386,346.985 441.816 L 350.843 438.330 350.843 357.962 L 350.843 277.595 354.106 273.014 C 362.379 261.397,365.451 250.315,363.429 239.376 C 362.461 234.139,362.535 233.753,365.319 229.550 C 373.501 217.198,369.255 196.926,354.560 178.175 C 351.829 174.690,351.807 174.556,351.807 161.086 L 351.807 147.510 371.132 147.249 L 390.457 146.988 390.421 112.771 L 390.385 78.554 393.747 73.298 C 398.054 66.563,398.470 68.337,388.428 50.645 C 383.654 42.235,379.924 35.176,380.140 34.961 C 380.629 34.472,398.368 65.650,398.383 67.024 C 398.389 67.574,396.803 70.510,394.859 73.549 L 391.325 79.074 391.325 111.826 C 391.325 129.840,391.651 144.578,392.048 144.578 C 392.446 144.578,392.617 129.921,392.429 112.007 L 392.086 79.435 396.002 73.242 L 399.917 67.050 397.234 62.199 C 380.270 31.535,381.469 33.268,378.365 34.929 C 377.276 35.512,376.178 35.807,375.925 35.585 C 375.672 35.362,373.892 38.000,371.969 41.446 C 364.656 54.551,359.479 63.703,358.411 65.413 C 357.492 66.884,357.863 67.993,360.579 71.907 L 363.855 76.627 364.337 93.255 L 364.819 109.883 357.349 109.881 L 349.880 109.880 349.880 94.084 L 349.880 78.289 353.253 73.384 C 357.667 66.967,357.969 68.200,347.549 50.039 C 339.219 35.518,336.283 32.044,334.869 35.031 C 334.830 35.114,330.927 42.104,326.194 50.565 C 321.462 59.027,317.451 66.277,317.280 66.676 C 317.110 67.076,318.411 69.478,320.172 72.015 L 323.373 76.627 323.855 94.700 L 324.337 112.774 314.458 112.773 L 304.578 112.771 304.578 95.857 L 304.578 78.944 308.105 73.448 C 312.580 66.473,313.056 68.544,302.801 50.373 C 297.943 41.764,294.079 34.228,294.213 33.626 C 294.348 33.023,293.905 32.400,293.229 32.241 C 292.553 32.082,292.448 32.173,292.995 32.444 C 293.604 32.745,293.294 33.933,292.196 35.504 C 289.368 39.555,274.696 66.041,274.723 67.046 C 274.737 67.544,276.255 70.317,278.097 73.208 L 281.446 78.465 281.229 112.244 L 281.012 146.024 280.506 111.807 L 280.000 77.590 276.490 72.193 L 272.981 66.796 278.456 57.254 C 287.615 41.290,291.201 34.699,290.727 34.699 C 290.072 34.699,272.454 65.842,272.460 66.988 C 272.463 67.518,274.046 70.416,275.979 73.428 L 279.493 78.904 279.746 112.295 L 280.000 145.685 301.446 145.580 L 322.892 145.476 322.892 155.148 L 322.892 164.819 317.767 164.819 C 308.739 164.819,301.503 166.775,288.675 172.684 C 264.072 184.017,259.088 185.210,258.482 179.915 C 258.076 176.369,259.834 174.515,268.301 169.556 C 286.033 159.172,285.909 158.126,265.060 142.192 C 258.964 137.532,253.609 133.389,253.162 132.985 C 252.714 132.581,253.039 128.906,253.884 124.817 C 254.841 120.191,255.422 112.550,255.422 104.582 C 255.422 79.466,261.453 61.351,275.108 45.458 C 280.932 38.679,280.688 38.521,264.762 38.755 L 251.084 38.955 265.060 39.518 L 279.036 40.081 265.047 40.281 L 251.058 40.482 242.941 22.410 C 238.477 12.470,234.362 3.979,233.798 3.541 C 233.154 3.042,233.311 2.890,234.217 3.134 C 235.012 3.349,239.095 11.191,243.290 20.561 C 247.484 29.931,251.089 37.425,251.300 37.214 C 251.723 36.791,243.727 18.544,238.794 8.675 C 235.762 2.609,233.210 0.670,232.713 4.055 C 232.581 4.960,227.995 13.540,222.524 23.122 L 212.576 40.543 202.556 40.271 L 192.536 40.000 183.371 22.651 C 178.331 13.108,174.121 4.459,174.015 3.429 C 173.910 2.399,173.208 1.390,172.454 1.186 C 171.317 0.880,171.307 0.973,172.398 1.738 M161.274 21.179 L 152.973 38.502 139.860 38.798 L 126.747 39.095 140.296 39.307 L 153.845 39.518 156.801 33.012 C 158.426 29.434,162.180 21.410,165.143 15.181 C 168.106 8.952,170.315 3.855,170.052 3.855 C 169.789 3.855,165.839 11.651,161.274 21.179 M175.422 4.277 C 175.422 4.685,179.434 12.785,184.337 22.277 L 193.253 39.535 202.725 39.286 L 212.198 39.036 221.393 23.133 C 226.451 14.386,230.795 6.578,231.047 5.783 C 231.577 4.113,219.818 23.608,214.914 32.530 L 211.603 38.554 202.803 38.554 L 194.004 38.554 191.089 33.012 C 189.486 29.964,185.467 22.265,182.157 15.904 C 175.893 3.864,175.422 3.051,175.422 4.277 M295.914 35.181 C 295.914 35.711,299.816 43.047,304.584 51.483 C 314.763 69.493,313.981 66.400,309.914 72.545 L 306.575 77.590 306.454 94.299 L 306.334 111.007 314.613 111.166 L 322.892 111.325 322.892 94.718 L 322.892 78.110 319.518 72.836 C 315.338 66.301,314.668 69.014,324.913 50.972 C 329.736 42.478,333.531 35.383,333.347 35.206 C 332.941 34.814,315.181 65.822,315.181 66.923 C 315.181 67.350,316.699 70.199,318.554 73.253 L 321.928 78.806 321.928 94.343 L 321.928 109.880 314.699 109.880 L 307.470 109.880 307.470 93.930 L 307.470 77.980 310.911 72.600 L 314.352 67.220 311.445 61.803 C 305.294 50.341,295.913 34.261,295.914 35.181 M347.779 52.188 C 356.967 68.640,356.540 66.674,352.289 72.987 L 348.916 77.996 348.916 94.661 L 348.916 111.325 357.590 111.325 L 366.265 111.325 366.265 95.219 L 366.265 79.114 362.448 73.076 L 358.630 67.039 360.811 63.158 C 373.043 41.387,376.334 35.772,376.668 36.106 C 376.883 36.320,373.173 43.357,368.425 51.742 L 359.793 66.988 363.511 72.875 L 367.229 78.763 367.229 95.767 L 367.229 112.771 357.590 112.771 L 347.952 112.771 347.952 95.375 L 347.952 77.980 351.325 72.706 C 355.467 66.232,356.118 69.007,346.476 52.050 C 341.953 44.097,337.996 36.831,337.682 35.903 C 336.611 32.734,339.665 37.659,347.779 52.188 M276.103 45.893 C 262.367 62.007,257.664 76.122,256.387 105.060 C 255.931 115.398,255.120 125.566,254.585 127.658 C 253.356 132.463,252.188 131.112,268.367 143.596 C 286.747 157.778,286.921 159.052,271.761 168.394 C 259.859 175.729,259.277 176.217,259.277 178.870 C 259.277 183.980,264.036 182.870,286.195 172.594 C 301.323 165.579,307.196 163.854,315.951 163.858 L 321.446 163.860 321.136 155.183 L 320.827 146.506 301.458 146.506 C 290.805 146.506,282.289 146.707,282.535 146.953 C 282.781 147.198,291.311 147.449,301.491 147.511 L 320.000 147.622 320.000 155.121 L 320.000 162.620 312.048 163.123 C 304.648 163.591,286.189 169.965,281.869 173.545 C 280.384 174.775,263.473 181.205,261.723 181.205 C 256.827 181.205,260.410 176.398,269.157 171.232 C 288.410 159.861,288.442 157.990,269.620 143.480 C 252.847 130.549,254.282 132.108,255.524 128.165 C 256.103 126.325,256.938 116.145,257.378 105.542 C 258.540 77.595,263.721 61.311,275.716 47.908 C 278.465 44.835,280.525 42.131,280.292 41.898 C 280.059 41.666,278.174 43.463,276.103 45.893 M187.783 69.157 C 196.841 78.253,196.207 88.807,186.747 86.405 C 183.633 85.615,182.298 82.885,181.185 75.041 C 179.535 63.409,180.872 62.216,187.783 69.157 M232.935 72.405 C 232.181 82.183,230.155 86.135,225.673 86.572 C 216.891 87.427,217.585 77.204,226.892 68.625 C 233.166 62.842,233.649 63.144,232.935 72.405 M226.811 70.010 C 219.684 77.072,218.328 85.017,224.154 85.589 C 229.188 86.083,233.027 77.663,232.106 68.146 L 231.807 65.060 226.811 70.010 M182.375 73.678 C 182.958 82.754,184.834 86.023,189.216 85.599 C 194.958 85.043,193.720 76.278,186.942 69.500 C 182.443 65.001,181.853 65.540,182.375 73.678 M190.480 75.873 C 193.129 82.063,191.901 85.536,187.458 84.421 C 184.725 83.734,183.146 79.148,183.138 71.868 L 183.133 67.109 186.143 69.940 C 187.798 71.497,189.750 74.167,190.480 75.873 M230.496 75.140 C 229.426 82.866,228.298 84.819,224.912 84.819 C 220.069 84.819,221.391 76.247,227.117 70.522 C 231.334 66.304,231.659 66.748,230.496 75.140 M64.850 121.963 C 54.622 124.718,36.514 136.324,29.398 144.686 C 27.027 147.471,29.381 145.692,40.141 136.566 C 64.680 115.754,101.507 116.605,84.911 137.601 C 82.841 140.219,78.304 144.158,74.830 146.352 C 63.165 153.719,63.567 160.692,75.868 164.345 C 87.527 167.807,86.967 163.147,89.571 278.554 C 90.634 325.694,92.190 333.699,102.318 344.135 C 108.854 350.870,112.962 352.147,129.544 352.598 L 143.908 352.988 143.317 369.024 C 142.992 377.844,141.789 392.000,140.643 400.482 C 136.306 432.593,137.639 441.291,149.431 457.831 C 163.807 477.997,165.460 483.144,163.591 501.933 C 161.911 518.823,163.420 524.036,171.398 528.911 C 184.052 536.642,227.513 520.532,236.494 504.781 C 241.459 496.074,240.692 491.466,232.426 480.340 C 219.829 463.385,211.222 447.711,210.389 440.210 C 209.852 435.379,210.897 434.223,221.240 428.203 C 239.932 417.322,242.165 408.286,230.163 392.101 C 217.208 374.629,210.130 361.703,207.161 350.097 C 204.968 341.523,204.850 339.856,206.506 340.851 C 207.202 341.269,207.100 340.817,206.265 339.783 C 204.888 338.075,204.805 338.111,204.517 340.538 C 203.373 350.158,214.186 372.425,230.541 394.129 C 241.443 408.598,238.345 417.367,218.165 429.162 C 210.211 433.811,209.157 434.972,209.157 439.079 C 209.157 445.258,217.846 461.785,229.758 478.263 C 243.764 497.638,240.512 507.734,216.386 519.774 C 182.039 536.914,162.600 532.667,164.479 508.434 C 166.456 482.935,165.238 478.171,152.121 460.093 C 138.045 440.694,137.207 435.853,141.802 400.482 C 143.515 387.297,144.347 375.880,144.869 358.409 L 145.060 351.998 130.120 351.609 C 96.151 350.724,92.097 342.838,90.586 274.699 C 88.118 163.380,88.671 167.364,75.065 162.946 C 65.228 159.752,64.858 153.637,74.159 147.987 C 98.972 132.914,92.400 114.543,64.850 121.963 M219.759 126.114 C 219.759 130.129,209.335 153.477,207.930 152.608 C 206.136 151.500,196.627 129.210,196.627 126.114 C 196.627 125.667,201.831 125.301,208.193 125.301 C 214.554 125.301,219.759 125.667,219.759 126.114 M198.068 127.952 C 198.444 128.880,199.515 131.809,200.448 134.462 C 202.176 139.380,207.933 151.325,208.574 151.325 C 209.121 151.325,216.054 134.960,217.455 130.361 L 218.703 126.265 208.044 126.265 C 198.274 126.265,197.441 126.406,198.068 127.952 M216.334 130.361 C 215.759 132.987,209.551 148.196,208.626 149.246 C 208.147 149.790,205.193 143.644,201.865 135.181 L 198.738 127.229 207.879 127.229 L 217.021 127.229 216.334 130.361 M370.843 146.264 L 350.843 146.545 350.843 160.570 L 350.843 174.594 355.203 180.704 C 369.023 200.070,372.452 220.496,363.582 230.611 C 362.414 231.943,362.078 235.033,362.012 245.068 C 361.919 259.115,361.022 261.940,353.140 273.014 L 349.880 277.595 349.880 357.894 L 349.880 438.194 347.229 440.728 C 340.590 447.075,325.461 445.442,322.076 438.013 C 321.265 436.233,320.964 414.593,320.964 358.102 L 320.964 280.632 316.900 277.154 C 306.795 268.504,273.017 254.029,269.777 256.960 C 265.537 260.798,253.432 281.560,251.146 288.916 C 249.782 293.305,262.893 290.718,266.982 285.790 C 271.155 280.762,278.407 280.152,284.193 284.343 C 288.953 287.791,289.172 289.584,286.338 301.852 C 281.921 320.976,282.193 321.852,292.853 322.768 C 309.329 324.184,314.050 333.265,310.133 356.009 C 307.286 372.540,307.043 402.945,309.663 414.658 C 313.372 431.237,309.090 441.455,300.008 437.694 C 298.406 437.030,282.400 420.820,262.975 400.190 C 221.437 356.072,217.484 351.807,218.133 351.807 C 218.414 351.807,235.520 369.699,256.148 391.566 C 297.369 435.266,299.741 437.590,303.096 437.590 C 309.367 437.590,311.383 428.858,308.574 413.867 C 305.412 396.999,305.089 382.603,307.525 367.229 C 312.925 333.155,310.306 325.376,292.922 323.847 C 281.026 322.802,280.585 321.419,285.420 300.369 C 287.745 290.246,287.430 287.250,283.789 284.864 C 278.025 281.088,272.007 282.179,264.857 288.299 C 261.281 291.360,253.797 293.110,250.196 291.729 C 246.600 290.349,267.130 254.458,271.515 254.458 C 278.142 254.458,308.500 269.214,318.790 277.436 L 322.880 280.705 323.127 359.832 L 323.373 438.960 326.649 441.166 C 332.621 445.191,345.210 443.677,347.923 438.608 C 348.581 437.379,348.916 409.920,348.916 357.202 L 348.916 277.650 353.734 270.269 C 360.698 259.601,363.795 243.870,360.547 235.663 C 359.992 234.260,360.444 232.948,362.207 230.843 C 371.299 219.991,366.664 194.766,352.646 178.799 L 349.785 175.542 349.591 160.542 L 349.398 145.542 370.120 145.762 L 390.843 145.983 370.843 146.264 M311.698 201.846 C 314.191 202.597,317.730 204.354,319.562 205.751 L 322.892 208.291 322.892 218.877 L 322.892 229.464 317.831 228.888 C 299.207 226.768,282.410 216.957,282.410 208.198 C 282.410 202.334,300.373 198.438,311.698 201.846 M294.172 202.463 C 284.241 204.229,281.968 206.534,284.785 211.981 C 288.609 219.376,300.263 225.284,315.002 227.299 L 320.964 228.115 320.964 218.303 C 320.964 207.577,320.767 207.143,314.431 203.933 C 310.518 201.951,300.953 201.256,294.172 202.463 M315.663 205.654 L 319.518 207.743 319.794 217.125 L 320.070 226.506 316.837 226.506 C 299.966 226.506,276.508 209.742,287.189 205.318 C 295.151 202.020,309.264 202.186,315.663 205.654 " stroke="none" fill="#fff" fill-rule="evenodd"></path></g></svg>